<mxfile host="app.diagrams.net" modified="2023-11-12T23:30:36.830Z" agent="Mozilla/5.0 (Macintosh; Intel Mac OS X 10_15_7) AppleWebKit/537.36 (KHTML, like Gecko) Chrome/119.0.0.0 Safari/537.36" etag="zyUXv4qy3CIQJ7rn_ejq" version="22.1.0" type="device">
  <diagram name="Trang-1" id="R9Sh0fko3uiAao1WYQLv">
    <mxGraphModel dx="1583" dy="765" grid="1" gridSize="10" guides="1" tooltips="1" connect="1" arrows="1" fold="1" page="1" pageScale="1" pageWidth="827" pageHeight="1169" math="0" shadow="0">
      <root>
        <mxCell id="0" />
        <mxCell id="1" parent="0" />
        <mxCell id="QIz-Jx8pFXAIl8S1eSyJ-1" style="edgeStyle=orthogonalEdgeStyle;rounded=0;orthogonalLoop=1;jettySize=auto;html=1;" parent="1" source="QIz-Jx8pFXAIl8S1eSyJ-2" target="QIz-Jx8pFXAIl8S1eSyJ-4" edge="1">
          <mxGeometry relative="1" as="geometry">
            <mxPoint x="380" y="180" as="targetPoint" />
          </mxGeometry>
        </mxCell>
        <mxCell id="QIz-Jx8pFXAIl8S1eSyJ-2" value="Start" style="ellipse;whiteSpace=wrap;html=1;" parent="1" vertex="1">
          <mxGeometry x="320" y="50" width="120" height="80" as="geometry" />
        </mxCell>
        <mxCell id="QIz-Jx8pFXAIl8S1eSyJ-3" style="edgeStyle=orthogonalEdgeStyle;rounded=0;orthogonalLoop=1;jettySize=auto;html=1;" parent="1" source="QIz-Jx8pFXAIl8S1eSyJ-4" target="QIz-Jx8pFXAIl8S1eSyJ-9" edge="1">
          <mxGeometry relative="1" as="geometry" />
        </mxCell>
        <mxCell id="QIz-Jx8pFXAIl8S1eSyJ-4" value="Nháº­p salary" style="shape=parallelogram;perimeter=parallelogramPerimeter;whiteSpace=wrap;html=1;fixedSize=1;" parent="1" vertex="1">
          <mxGeometry x="295" y="170" width="170" height="60" as="geometry" />
        </mxCell>
        <mxCell id="QIz-Jx8pFXAIl8S1eSyJ-5" style="edgeStyle=orthogonalEdgeStyle;rounded=0;orthogonalLoop=1;jettySize=auto;html=1;entryX=0.5;entryY=0;entryDx=0;entryDy=0;" parent="1" source="QIz-Jx8pFXAIl8S1eSyJ-9" target="QIz-Jx8pFXAIl8S1eSyJ-14" edge="1">
          <mxGeometry relative="1" as="geometry" />
        </mxCell>
        <mxCell id="QIz-Jx8pFXAIl8S1eSyJ-6" value="False" style="edgeLabel;html=1;align=center;verticalAlign=middle;resizable=0;points=[];" parent="QIz-Jx8pFXAIl8S1eSyJ-5" vertex="1" connectable="0">
          <mxGeometry x="-0.3111" y="1" relative="1" as="geometry">
            <mxPoint as="offset" />
          </mxGeometry>
        </mxCell>
        <mxCell id="QIz-Jx8pFXAIl8S1eSyJ-7" style="edgeStyle=orthogonalEdgeStyle;rounded=0;orthogonalLoop=1;jettySize=auto;html=1;" parent="1" source="QIz-Jx8pFXAIl8S1eSyJ-9" edge="1">
          <mxGeometry relative="1" as="geometry">
            <mxPoint x="220" y="320" as="targetPoint" />
          </mxGeometry>
        </mxCell>
        <mxCell id="QIz-Jx8pFXAIl8S1eSyJ-8" value="True" style="edgeLabel;html=1;align=center;verticalAlign=middle;resizable=0;points=[];" parent="QIz-Jx8pFXAIl8S1eSyJ-7" vertex="1" connectable="0">
          <mxGeometry x="-0.4333" y="1" relative="1" as="geometry">
            <mxPoint as="offset" />
          </mxGeometry>
        </mxCell>
        <mxCell id="QIz-Jx8pFXAIl8S1eSyJ-9" value="total_income&amp;lt;=5" style="rhombus;whiteSpace=wrap;html=1;" parent="1" vertex="1">
          <mxGeometry x="300" y="280" width="160" height="80" as="geometry" />
        </mxCell>
        <mxCell id="QIz-Jx8pFXAIl8S1eSyJ-10" style="edgeStyle=orthogonalEdgeStyle;rounded=0;orthogonalLoop=1;jettySize=auto;html=1;" parent="1" source="QIz-Jx8pFXAIl8S1eSyJ-14" edge="1">
          <mxGeometry relative="1" as="geometry">
            <mxPoint x="380" y="560" as="targetPoint" />
          </mxGeometry>
        </mxCell>
        <mxCell id="QIz-Jx8pFXAIl8S1eSyJ-11" value="False" style="edgeLabel;html=1;align=center;verticalAlign=middle;resizable=0;points=[];" parent="QIz-Jx8pFXAIl8S1eSyJ-10" vertex="1" connectable="0">
          <mxGeometry x="-0.2507" y="2" relative="1" as="geometry">
            <mxPoint as="offset" />
          </mxGeometry>
        </mxCell>
        <mxCell id="QIz-Jx8pFXAIl8S1eSyJ-12" style="edgeStyle=orthogonalEdgeStyle;rounded=0;orthogonalLoop=1;jettySize=auto;html=1;entryX=1;entryY=0.5;entryDx=0;entryDy=0;" parent="1" source="QIz-Jx8pFXAIl8S1eSyJ-14" edge="1">
          <mxGeometry relative="1" as="geometry">
            <mxPoint x="220" y="460" as="targetPoint" />
          </mxGeometry>
        </mxCell>
        <mxCell id="QIz-Jx8pFXAIl8S1eSyJ-13" value="True" style="edgeLabel;html=1;align=center;verticalAlign=middle;resizable=0;points=[];" parent="QIz-Jx8pFXAIl8S1eSyJ-12" vertex="1" connectable="0">
          <mxGeometry x="-0.0444" y="-1" relative="1" as="geometry">
            <mxPoint as="offset" />
          </mxGeometry>
        </mxCell>
        <mxCell id="QIz-Jx8pFXAIl8S1eSyJ-14" value="total_income&amp;lt;=10" style="rhombus;whiteSpace=wrap;html=1;" parent="1" vertex="1">
          <mxGeometry x="310" y="420" width="140" height="80" as="geometry" />
        </mxCell>
        <mxCell id="QIz-Jx8pFXAIl8S1eSyJ-15" style="edgeStyle=orthogonalEdgeStyle;rounded=0;orthogonalLoop=1;jettySize=auto;html=1;" parent="1" source="QIz-Jx8pFXAIl8S1eSyJ-19" edge="1">
          <mxGeometry relative="1" as="geometry">
            <mxPoint x="380" y="720" as="targetPoint" />
          </mxGeometry>
        </mxCell>
        <mxCell id="QIz-Jx8pFXAIl8S1eSyJ-16" value="False" style="edgeLabel;html=1;align=center;verticalAlign=middle;resizable=0;points=[];" parent="QIz-Jx8pFXAIl8S1eSyJ-15" vertex="1" connectable="0">
          <mxGeometry x="0.0728" y="-1" relative="1" as="geometry">
            <mxPoint as="offset" />
          </mxGeometry>
        </mxCell>
        <mxCell id="QIz-Jx8pFXAIl8S1eSyJ-17" style="edgeStyle=orthogonalEdgeStyle;rounded=0;orthogonalLoop=1;jettySize=auto;html=1;entryX=1;entryY=0.5;entryDx=0;entryDy=0;" parent="1" source="QIz-Jx8pFXAIl8S1eSyJ-19" edge="1">
          <mxGeometry relative="1" as="geometry">
            <mxPoint x="220" y="600" as="targetPoint" />
          </mxGeometry>
        </mxCell>
        <mxCell id="QIz-Jx8pFXAIl8S1eSyJ-18" value="True" style="edgeLabel;html=1;align=center;verticalAlign=middle;resizable=0;points=[];" parent="QIz-Jx8pFXAIl8S1eSyJ-17" vertex="1" connectable="0">
          <mxGeometry x="-0.025" y="-3" relative="1" as="geometry">
            <mxPoint as="offset" />
          </mxGeometry>
        </mxCell>
        <mxCell id="QIz-Jx8pFXAIl8S1eSyJ-19" value="&lt;br&gt;&lt;span style=&quot;color: rgb(0, 0, 0); font-family: Helvetica; font-size: 12px; font-style: normal; font-variant-ligatures: normal; font-variant-caps: normal; font-weight: 400; letter-spacing: normal; orphans: 2; text-align: center; text-indent: 0px; text-transform: none; widows: 2; word-spacing: 0px; -webkit-text-stroke-width: 0px; background-color: rgb(251, 251, 251); text-decoration-thickness: initial; text-decoration-style: initial; text-decoration-color: initial; float: none; display: inline !important;&quot;&gt;total_income&amp;lt;=18&lt;/span&gt;&lt;br&gt;" style="rhombus;whiteSpace=wrap;html=1;" parent="1" vertex="1">
          <mxGeometry x="300" y="560" width="165" height="80" as="geometry" />
        </mxCell>
        <mxCell id="QIz-Jx8pFXAIl8S1eSyJ-20" style="edgeStyle=orthogonalEdgeStyle;rounded=0;orthogonalLoop=1;jettySize=auto;html=1;" parent="1" source="QIz-Jx8pFXAIl8S1eSyJ-24" edge="1">
          <mxGeometry relative="1" as="geometry">
            <mxPoint x="380" y="880" as="targetPoint" />
          </mxGeometry>
        </mxCell>
        <mxCell id="QIz-Jx8pFXAIl8S1eSyJ-21" value="False" style="edgeLabel;html=1;align=center;verticalAlign=middle;resizable=0;points=[];" parent="QIz-Jx8pFXAIl8S1eSyJ-20" vertex="1" connectable="0">
          <mxGeometry x="0.0062" y="1" relative="1" as="geometry">
            <mxPoint y="-1" as="offset" />
          </mxGeometry>
        </mxCell>
        <mxCell id="QIz-Jx8pFXAIl8S1eSyJ-22" style="edgeStyle=orthogonalEdgeStyle;rounded=0;orthogonalLoop=1;jettySize=auto;html=1;entryX=1;entryY=0.5;entryDx=0;entryDy=0;" parent="1" source="QIz-Jx8pFXAIl8S1eSyJ-24" edge="1">
          <mxGeometry relative="1" as="geometry">
            <mxPoint x="230" y="760" as="targetPoint" />
          </mxGeometry>
        </mxCell>
        <mxCell id="QIz-Jx8pFXAIl8S1eSyJ-23" value="True" style="edgeLabel;html=1;align=center;verticalAlign=middle;resizable=0;points=[];" parent="QIz-Jx8pFXAIl8S1eSyJ-22" vertex="1" connectable="0">
          <mxGeometry y="-1" relative="1" as="geometry">
            <mxPoint as="offset" />
          </mxGeometry>
        </mxCell>
        <mxCell id="QIz-Jx8pFXAIl8S1eSyJ-24" value="&lt;br&gt;&lt;span style=&quot;color: rgb(0, 0, 0); font-family: Helvetica; font-size: 12px; font-style: normal; font-variant-ligatures: normal; font-variant-caps: normal; font-weight: 400; letter-spacing: normal; orphans: 2; text-align: center; text-indent: 0px; text-transform: none; widows: 2; word-spacing: 0px; -webkit-text-stroke-width: 0px; background-color: rgb(251, 251, 251); text-decoration-thickness: initial; text-decoration-style: initial; text-decoration-color: initial; float: none; display: inline !important;&quot;&gt;total_income&amp;lt;=32&lt;/span&gt;&lt;br&gt;" style="rhombus;whiteSpace=wrap;html=1;" parent="1" vertex="1">
          <mxGeometry x="300" y="720" width="160" height="80" as="geometry" />
        </mxCell>
        <mxCell id="QIz-Jx8pFXAIl8S1eSyJ-25" style="edgeStyle=orthogonalEdgeStyle;rounded=0;orthogonalLoop=1;jettySize=auto;html=1;" parent="1" source="QIz-Jx8pFXAIl8S1eSyJ-29" target="QIz-Jx8pFXAIl8S1eSyJ-34" edge="1">
          <mxGeometry relative="1" as="geometry" />
        </mxCell>
        <mxCell id="QIz-Jx8pFXAIl8S1eSyJ-26" value="False" style="edgeLabel;html=1;align=center;verticalAlign=middle;resizable=0;points=[];" parent="QIz-Jx8pFXAIl8S1eSyJ-25" vertex="1" connectable="0">
          <mxGeometry x="-0.0963" y="2" relative="1" as="geometry">
            <mxPoint as="offset" />
          </mxGeometry>
        </mxCell>
        <mxCell id="QIz-Jx8pFXAIl8S1eSyJ-27" style="edgeStyle=orthogonalEdgeStyle;rounded=0;orthogonalLoop=1;jettySize=auto;html=1;entryX=1;entryY=0.5;entryDx=0;entryDy=0;" parent="1" source="QIz-Jx8pFXAIl8S1eSyJ-29" edge="1">
          <mxGeometry relative="1" as="geometry">
            <mxPoint x="220" y="920" as="targetPoint" />
          </mxGeometry>
        </mxCell>
        <mxCell id="QIz-Jx8pFXAIl8S1eSyJ-28" value="True" style="edgeLabel;html=1;align=center;verticalAlign=middle;resizable=0;points=[];" parent="QIz-Jx8pFXAIl8S1eSyJ-27" vertex="1" connectable="0">
          <mxGeometry x="-0.0933" y="-1" relative="1" as="geometry">
            <mxPoint as="offset" />
          </mxGeometry>
        </mxCell>
        <mxCell id="QIz-Jx8pFXAIl8S1eSyJ-29" value="&lt;br&gt;&lt;span style=&quot;color: rgb(0, 0, 0); font-family: Helvetica; font-size: 12px; font-style: normal; font-variant-ligatures: normal; font-variant-caps: normal; font-weight: 400; letter-spacing: normal; orphans: 2; text-align: center; text-indent: 0px; text-transform: none; widows: 2; word-spacing: 0px; -webkit-text-stroke-width: 0px; background-color: rgb(251, 251, 251); text-decoration-thickness: initial; text-decoration-style: initial; text-decoration-color: initial; float: none; display: inline !important;&quot;&gt;total_income&amp;lt;=52&lt;/span&gt;&lt;br&gt;" style="rhombus;whiteSpace=wrap;html=1;" parent="1" vertex="1">
          <mxGeometry x="295" y="880" width="180" height="80" as="geometry" />
        </mxCell>
        <mxCell id="QIz-Jx8pFXAIl8S1eSyJ-30" style="edgeStyle=orthogonalEdgeStyle;rounded=0;orthogonalLoop=1;jettySize=auto;html=1;" parent="1" source="QIz-Jx8pFXAIl8S1eSyJ-34" target="QIz-Jx8pFXAIl8S1eSyJ-36" edge="1">
          <mxGeometry relative="1" as="geometry">
            <mxPoint x="355" y="990" as="targetPoint" />
          </mxGeometry>
        </mxCell>
        <mxCell id="QIz-Jx8pFXAIl8S1eSyJ-31" value="False" style="edgeLabel;html=1;align=center;verticalAlign=middle;resizable=0;points=[];" parent="QIz-Jx8pFXAIl8S1eSyJ-30" vertex="1" connectable="0">
          <mxGeometry x="-0.2667" y="2" relative="1" as="geometry">
            <mxPoint as="offset" />
          </mxGeometry>
        </mxCell>
        <mxCell id="QIz-Jx8pFXAIl8S1eSyJ-32" style="edgeStyle=orthogonalEdgeStyle;rounded=0;orthogonalLoop=1;jettySize=auto;html=1;entryX=1;entryY=0.5;entryDx=0;entryDy=0;" parent="1" source="QIz-Jx8pFXAIl8S1eSyJ-34" edge="1">
          <mxGeometry relative="1" as="geometry">
            <mxPoint x="225" y="1090" as="targetPoint" />
          </mxGeometry>
        </mxCell>
        <mxCell id="QIz-Jx8pFXAIl8S1eSyJ-33" value="True" style="edgeLabel;html=1;align=center;verticalAlign=middle;resizable=0;points=[];" parent="QIz-Jx8pFXAIl8S1eSyJ-32" vertex="1" connectable="0">
          <mxGeometry x="-0.1077" y="-2" relative="1" as="geometry">
            <mxPoint as="offset" />
          </mxGeometry>
        </mxCell>
        <mxCell id="QIz-Jx8pFXAIl8S1eSyJ-34" value="&lt;br&gt;&lt;span style=&quot;color: rgb(0, 0, 0); font-family: Helvetica; font-size: 12px; font-style: normal; font-variant-ligatures: normal; font-variant-caps: normal; font-weight: 400; letter-spacing: normal; orphans: 2; text-align: center; text-indent: 0px; text-transform: none; widows: 2; word-spacing: 0px; -webkit-text-stroke-width: 0px; background-color: rgb(251, 251, 251); text-decoration-thickness: initial; text-decoration-style: initial; text-decoration-color: initial; float: none; display: inline !important;&quot;&gt;total_income&amp;lt;=80&lt;/span&gt;&lt;br&gt;" style="rhombus;whiteSpace=wrap;html=1;" parent="1" vertex="1">
          <mxGeometry x="290" y="1050" width="190" height="80" as="geometry" />
        </mxCell>
        <mxCell id="QIz-Jx8pFXAIl8S1eSyJ-35" style="edgeStyle=orthogonalEdgeStyle;rounded=0;orthogonalLoop=1;jettySize=auto;html=1;" parent="1" source="QIz-Jx8pFXAIl8S1eSyJ-36" target="QIz-Jx8pFXAIl8S1eSyJ-49" edge="1">
          <mxGeometry relative="1" as="geometry">
            <mxPoint x="385" y="1330" as="targetPoint" />
          </mxGeometry>
        </mxCell>
        <mxCell id="QIz-Jx8pFXAIl8S1eSyJ-36" value="&lt;br style=&quot;border-color: var(--border-color);&quot;&gt;tax = salary*0.35&lt;br style=&quot;border-color: var(--border-color);&quot;&gt;actual_salary = salary - tax" style="shape=parallelogram;perimeter=parallelogramPerimeter;whiteSpace=wrap;html=1;fixedSize=1;" parent="1" vertex="1">
          <mxGeometry x="255" y="1200" width="260" height="60" as="geometry" />
        </mxCell>
        <mxCell id="QIz-Jx8pFXAIl8S1eSyJ-37" style="edgeStyle=orthogonalEdgeStyle;rounded=0;orthogonalLoop=1;jettySize=auto;html=1;entryX=0;entryY=0.5;entryDx=0;entryDy=0;" parent="1" target="QIz-Jx8pFXAIl8S1eSyJ-49" edge="1">
          <mxGeometry relative="1" as="geometry">
            <mxPoint x="-80" y="1340" as="targetPoint" />
            <Array as="points">
              <mxPoint x="-120" y="320" />
              <mxPoint x="-120" y="1340" />
            </Array>
            <mxPoint x="-40" y="320" as="sourcePoint" />
          </mxGeometry>
        </mxCell>
        <mxCell id="QIz-Jx8pFXAIl8S1eSyJ-39" style="edgeStyle=orthogonalEdgeStyle;rounded=0;orthogonalLoop=1;jettySize=auto;html=1;" parent="1" edge="1">
          <mxGeometry relative="1" as="geometry">
            <mxPoint x="-120" y="460" as="targetPoint" />
            <mxPoint x="-50" y="460" as="sourcePoint" />
          </mxGeometry>
        </mxCell>
        <mxCell id="QIz-Jx8pFXAIl8S1eSyJ-41" style="edgeStyle=orthogonalEdgeStyle;rounded=0;orthogonalLoop=1;jettySize=auto;html=1;" parent="1" edge="1">
          <mxGeometry relative="1" as="geometry">
            <mxPoint x="-120" y="600" as="targetPoint" />
            <mxPoint x="-40" y="600" as="sourcePoint" />
          </mxGeometry>
        </mxCell>
        <mxCell id="QIz-Jx8pFXAIl8S1eSyJ-43" style="edgeStyle=orthogonalEdgeStyle;rounded=0;orthogonalLoop=1;jettySize=auto;html=1;" parent="1" edge="1">
          <mxGeometry relative="1" as="geometry">
            <mxPoint x="-120" y="760" as="targetPoint" />
            <mxPoint x="-30" y="760" as="sourcePoint" />
          </mxGeometry>
        </mxCell>
        <mxCell id="QIz-Jx8pFXAIl8S1eSyJ-45" style="edgeStyle=orthogonalEdgeStyle;rounded=0;orthogonalLoop=1;jettySize=auto;html=1;" parent="1" edge="1">
          <mxGeometry relative="1" as="geometry">
            <mxPoint x="-120" y="920" as="targetPoint" />
            <mxPoint x="-30" y="920" as="sourcePoint" />
          </mxGeometry>
        </mxCell>
        <mxCell id="QIz-Jx8pFXAIl8S1eSyJ-47" style="edgeStyle=orthogonalEdgeStyle;rounded=0;orthogonalLoop=1;jettySize=auto;html=1;" parent="1" edge="1">
          <mxGeometry relative="1" as="geometry">
            <mxPoint x="-120" y="1090" as="targetPoint" />
            <mxPoint x="-35" y="1090" as="sourcePoint" />
          </mxGeometry>
        </mxCell>
        <mxCell id="QIz-Jx8pFXAIl8S1eSyJ-49" value="End" style="ellipse;whiteSpace=wrap;html=1;" parent="1" vertex="1">
          <mxGeometry x="325" y="1300" width="120" height="80" as="geometry" />
        </mxCell>
        <mxCell id="QIz-Jx8pFXAIl8S1eSyJ-50" value="&lt;br&gt;&lt;span style=&quot;color: rgb(0, 0, 0); font-family: Helvetica; font-size: 12px; font-style: normal; font-variant-ligatures: normal; font-variant-caps: normal; font-weight: 400; letter-spacing: normal; orphans: 2; text-align: center; text-indent: 0px; text-transform: none; widows: 2; word-spacing: 0px; -webkit-text-stroke-width: 0px; background-color: rgb(251, 251, 251); text-decoration-thickness: initial; text-decoration-style: initial; text-decoration-color: initial; float: none; display: inline !important;&quot;&gt;tax = salary*0.05&lt;br&gt;actual_salary = salary - tax&lt;br&gt;&lt;/span&gt;" style="shape=parallelogram;perimeter=parallelogramPerimeter;whiteSpace=wrap;html=1;fixedSize=1;" parent="1" vertex="1">
          <mxGeometry x="-50" y="290" width="280" height="60" as="geometry" />
        </mxCell>
        <mxCell id="QIz-Jx8pFXAIl8S1eSyJ-51" value="&lt;br style=&quot;border-color: var(--border-color);&quot;&gt;tax = salary*0.1&lt;br style=&quot;border-color: var(--border-color);&quot;&gt;actual_salary = salary - tax" style="shape=parallelogram;perimeter=parallelogramPerimeter;whiteSpace=wrap;html=1;fixedSize=1;" parent="1" vertex="1">
          <mxGeometry x="-60" y="430" width="290" height="60" as="geometry" />
        </mxCell>
        <mxCell id="QIz-Jx8pFXAIl8S1eSyJ-52" value="&lt;br style=&quot;border-color: var(--border-color);&quot;&gt;tax = salary*0.15&lt;br style=&quot;border-color: var(--border-color);&quot;&gt;actual_salary = salary - tax" style="shape=parallelogram;perimeter=parallelogramPerimeter;whiteSpace=wrap;html=1;fixedSize=1;" parent="1" vertex="1">
          <mxGeometry x="-50" y="570" width="280" height="60" as="geometry" />
        </mxCell>
        <mxCell id="QIz-Jx8pFXAIl8S1eSyJ-53" value="&lt;br style=&quot;border-color: var(--border-color);&quot;&gt;tax = salary*0.2&lt;br style=&quot;border-color: var(--border-color);&quot;&gt;actual_salary = salary - tax" style="shape=parallelogram;perimeter=parallelogramPerimeter;whiteSpace=wrap;html=1;fixedSize=1;" parent="1" vertex="1">
          <mxGeometry x="-40" y="730" width="280" height="60" as="geometry" />
        </mxCell>
        <mxCell id="QIz-Jx8pFXAIl8S1eSyJ-54" value="&lt;br style=&quot;border-color: var(--border-color);&quot;&gt;tax = salary*0.25&lt;br style=&quot;border-color: var(--border-color);&quot;&gt;actual_salary = salary - tax" style="shape=parallelogram;perimeter=parallelogramPerimeter;whiteSpace=wrap;html=1;fixedSize=1;" parent="1" vertex="1">
          <mxGeometry x="-40" y="890" width="270" height="60" as="geometry" />
        </mxCell>
        <mxCell id="QIz-Jx8pFXAIl8S1eSyJ-55" value="&lt;br style=&quot;border-color: var(--border-color);&quot;&gt;tax = salary*0.03&lt;br style=&quot;border-color: var(--border-color);&quot;&gt;actual_salary = salary - tax" style="shape=parallelogram;perimeter=parallelogramPerimeter;whiteSpace=wrap;html=1;fixedSize=1;" parent="1" vertex="1">
          <mxGeometry x="-50" y="1060" width="290" height="60" as="geometry" />
        </mxCell>
      </root>
    </mxGraphModel>
  </diagram>
</mxfile>
